<svg width="258" height="258" viewBox="0 0 258 258" fill="none" xmlns="http://www.w3.org/2000/svg">
<rect x="101.776" width="186" height="186" rx="93" transform="rotate(33.1739 101.776 0)" fill="#1740CE"/>
<g clip-path="url(#clip0_270_7)">
<path d="M142.11 152.641C141.063 153.227 139.733 153.513 138.508 153.167C135.524 152.545 132.589 152.01 130.014 151.503C122.424 150.021 115.873 148.759 110.632 146.764C104.525 144.452 100.436 141.24 97.8479 136.614C95.3086 132.077 94.5355 127.009 95.7062 122.343C96.8281 117.59 99.8657 113.598 104.229 111.157C107.458 109.35 111.098 108.688 114.839 109.23C115.967 109.402 117.143 109.66 118.28 110.055C118.539 108.879 118.934 107.741 119.377 106.691C120.872 103.219 123.253 100.512 126.569 98.656C130.933 96.2144 135.836 95.7623 140.561 97.2436C145.15 98.6865 149.065 101.996 151.604 106.534C154.192 111.159 154.791 116.325 153.567 122.739C152.525 128.249 150.174 134.492 147.467 141.737C146.552 144.197 145.473 146.978 144.442 149.847C144.048 150.984 143.157 152.055 142.11 152.641ZM105.889 114.124C102.399 116.077 99.9511 119.28 99.0983 123.081C98.1582 126.93 98.8409 131.017 100.941 134.769C103.089 138.609 106.575 141.357 111.865 143.439C116.834 145.356 123.248 146.58 130.703 148.024C133.278 148.531 136.213 149.066 139.246 149.775C140.013 149.918 140.886 149.43 141.166 148.701C142.283 145.783 143.227 142.964 144.142 140.504C146.81 133.395 149.123 127.289 150.088 122.05C151.081 116.453 150.562 112.045 148.414 108.205C146.314 104.452 143.101 101.782 139.416 100.52C135.643 99.3081 131.72 99.6698 128.23 101.623C125.612 103.088 123.695 105.192 122.616 107.973C122.085 109.072 121.826 110.248 121.529 111.56C121.386 112.328 120.883 113.068 120.185 113.459C119.487 113.849 118.593 113.891 117.864 113.611C116.677 113.129 115.452 112.783 114.238 112.661C111.352 112.213 108.507 112.659 105.889 114.124Z" fill="white"/>
</g>
<defs>
<clipPath id="clip0_270_7">
<rect width="64" height="64" fill="white" transform="translate(85.1788 116.431) rotate(-29.2299)"/>
</clipPath>
</defs>
</svg>
